<?xml version="1.0" encoding="UTF-8" standalone="no"?>
<svg
   xmlns:dc="http://purl.org/dc/elements/1.1/"
   xmlns:cc="http://creativecommons.org/ns#"
   xmlns:rdf="http://www.w3.org/1999/02/22-rdf-syntax-ns#"
   xmlns:svg="http://www.w3.org/2000/svg"
   xmlns="http://www.w3.org/2000/svg"
   viewBox="0 0 385.98666 249.98666"
   height="249.98666"
   width="385.98666"
   xml:space="preserve"
   id="svg2"
   version="1.1"><metadata
     id="metadata8"><rdf:RDF><cc:Work
         rdf:about=""><dc:format>image/svg+xml</dc:format><dc:type
           rdf:resource="http://purl.org/dc/dcmitype/StillImage" /></cc:Work></rdf:RDF></metadata><defs
     id="defs6" /><g
     transform="matrix(1.3333333,0,0,-1.3333333,0,249.98667)"
     id="g10"><g
       transform="scale(0.1)"
       id="g12"><g
         transform="scale(10)"
         id="g14"><text
           id="text18"
           style="font-variant:normal;font-weight:normal;font-size:53.05508804px;font-family:'Century Schoolbook L';-inkscape-font-specification:CenturyGothic;writing-mode:lr-tb;fill:#ffffff;fill-opacity:1;fill-rule:nonzero;stroke:none"
           transform="matrix(0.99999975,5.6000461e-4,7.1338679e-4,-0.79264406,175.151,68.1141)"><tspan
             id="tspan16"
             y="0"
             x="0">I</tspan></text>
<text
           id="text22"
           style="font-variant:normal;font-weight:normal;font-size:54.95140076px;font-family:'Century Schoolbook L';-inkscape-font-specification:CenturyGothic;writing-mode:lr-tb;fill:#ffffff;fill-opacity:1;fill-rule:nonzero;stroke:none"
           transform="matrix(-0.99999975,-5.6000541e-4,-7.1338679e-4,0.79264406,224.59,99.2055)"><tspan
             id="tspan20"
             y="0"
             x="0">V</tspan></text>
<text
           id="text26"
           style="font-variant:normal;font-weight:normal;font-size:53.05508804px;font-family:'Century Schoolbook L';-inkscape-font-specification:CenturyGothic;writing-mode:lr-tb;fill:#ffffff;fill-opacity:1;fill-rule:nonzero;stroke:none"
           transform="matrix(0.99999975,5.6000461e-4,7.1338679e-4,-0.79264406,64.8941,68.1121)"><tspan
             id="tspan24"
             y="0"
             x="0 11.994595">IN</tspan></text>
<text
           id="text30"
           style="font-variant:normal;font-weight:normal;font-size:8.42195034px;font-family:MyriadPro;-inkscape-font-specification:MyriadPro-Regular;writing-mode:lr-tb;fill:#ffffff;fill-opacity:1;fill-rule:nonzero;stroke:none"
           transform="matrix(1,0,0,-1,68.518,47.3859)"><tspan
             id="tspan28"
             y="0"
             x="0 6.6113319 13.314943 16.262693 21.568354 26.882317 32.524899 38.841789 44.888176 50.194324 53.141594 59.913078 65.218727 68.166008 73.480446 79.79686 86.500961 91.848625 97.154282 100.10155 105.416 111.05857 114.23337 119.92673 123.10154 128.45018 135.06053 140.36717 145.50388 150.64156">UN ESPACE DE SANTE SPIRITUELLE</tspan></text>
</g><path
         id="path32"
         style="fill:#ffffff;fill-opacity:1;fill-rule:nonzero;stroke:none"
         d="m 1885.21,1375.98 c 0,0 66.92,4.06 96.99,-84.49 0,0 24.06,61.05 90,28.01 0,0 -48.79,20.8 -88.56,-51.04 0,0 -26.83,88.95 -98.43,107.52" /><path
         id="path34"
         style="fill:#ffffff;fill-opacity:1;fill-rule:nonzero;stroke:none"
         d="m 1356.97,1355.92 c 0,0 106.04,27.62 237.29,-136.15 0,0 99.1,107.5 264.47,5.41 0,0 -176.66,103.63 -286.79,-93.93 10.88,59.3 -30.08,181.1 -214.97,224.67" /><path
         id="path36"
         style="fill:#ffffff;fill-opacity:1;fill-rule:nonzero;stroke:none"
         d="m 940.93,1100.12 c 0,0 306.01,76.78 510.34,-305.159 9.14,16.66 132.91,330.899 499.29,341.999 0,0 -342.45,18.67 -512.19,-547.858 0,0 -15.5,537.528 -497.44,511.018" /></g></g></svg>